<?xml version="1.0" encoding="UTF-8"?>
<svg id="Layer_1" data-name="Layer 1" xmlns="http://www.w3.org/2000/svg" version="1.1" xmlns:xlink="http://www.w3.org/1999/xlink" viewBox="0 0 74 73">
  <defs>
    <style>
      .cls-1 {
        fill: url(#linear-gradient-7);
      }

      .cls-1, .cls-2, .cls-3, .cls-4, .cls-5, .cls-6, .cls-7 {
        stroke-width: 0px;
      }

      .cls-1, .cls-4 {
        fill-rule: evenodd;
      }

      .cls-2 {
        fill: url(#linear-gradient-6);
      }

      .cls-3 {
        fill: url(#linear-gradient-3);
      }

      .cls-3, .cls-6, .cls-7 {
        isolation: isolate;
        opacity: .5;
      }

      .cls-4 {
        fill: url(#linear-gradient);
      }

      .cls-5 {
        fill: url(#linear-gradient-2);
      }

      .cls-6 {
        fill: url(#linear-gradient-4);
      }

      .cls-7 {
        fill: url(#linear-gradient-5);
      }
    </style>
    <linearGradient id="linear-gradient" x1="29.3" y1="27.1" x2="56.9" y2="62.8" gradientTransform="translate(0 74) scale(1 -1)" gradientUnits="userSpaceOnUse">
      <stop offset="0" stop-color="#7e858a"/>
      <stop offset="1" stop-color="#bdc2c7"/>
    </linearGradient>
    <linearGradient id="linear-gradient-2" x1="59.1" y1="43.9" x2="24.5" y2="43.9" gradientTransform="translate(0 74) scale(1 -1)" gradientUnits="userSpaceOnUse">
      <stop offset="0" stop-color="#fff"/>
      <stop offset="1" stop-color="#bec6cc"/>
    </linearGradient>
    <linearGradient id="linear-gradient-3" x1="24.9" y1="31.8" x2="24.8" y2="30.3" gradientTransform="translate(0 74) scale(1 -1)" gradientUnits="userSpaceOnUse">
      <stop offset="0" stop-color="#bec6cc"/>
      <stop offset="1" stop-color="#fff"/>
    </linearGradient>
    <linearGradient id="linear-gradient-4" x1="51.2" y1="32.5" x2="51.1" y2="30.4" gradientTransform="translate(0 74) scale(1 -1)" gradientUnits="userSpaceOnUse">
      <stop offset="0" stop-color="#bec6cc"/>
      <stop offset="1" stop-color="#fff"/>
    </linearGradient>
    <linearGradient id="linear-gradient-5" x1="38.8" y1="35.5" x2="38.7" y2="30.6" gradientTransform="translate(0 74) scale(1 -1)" gradientUnits="userSpaceOnUse">
      <stop offset="0" stop-color="#bec6cc"/>
      <stop offset="1" stop-color="#fff"/>
    </linearGradient>
    <linearGradient id="linear-gradient-6" x1="16.7" y1="38.5" x2="16.7" y2="86.9" gradientTransform="translate(0 74) scale(1 -1)" gradientUnits="userSpaceOnUse">
      <stop offset="0" stop-color="#fdb713"/>
      <stop offset="1" stop-color="#fff"/>
    </linearGradient>
    <linearGradient id="linear-gradient-7" x1="-2.6" y1="87.6" x2="24" y2="37.3" gradientTransform="translate(0 74) scale(1 -1)" gradientUnits="userSpaceOnUse">
      <stop offset="0" stop-color="#fdb713"/>
      <stop offset="1" stop-color="#fff"/>
    </linearGradient>
  </defs>
  <path class="cls-4" d="M57,53.2H17.8c-2.3,0-4.2-1.9-4.2-4.2v-24.9c0-2.3,1.9-4.2,4.2-4.2h39.2c2.3,0,4.2,1.9,4.2,4.2v24.9c0,2.3-1.9,4.2-4.2,4.2Z"/>
  <path class="cls-5" d="M61.2,27.2H13.5v5.7h47.7v-5.7Z"/>
  <path class="cls-3" d="M18.6,41h12.4c.5,0,.9.4.9.9v3.9c0,.5-.4.9-.9.9h-12.4c-.5,0-.9-.4-.9-.9v-3.9c0-.5.4-.9.9-.9Z"/>
  <path class="cls-6" d="M46.2,41h9.9c.5,0,.9.4.9.9v3.9c0,.5-.4.9-.9.9h-9.9c-.5,0-.9-.4-.9-.9v-3.9c0-.5.4-.9.9-.9Z"/>
  <path class="cls-7" d="M35.8,41h5.8c.5,0,.9.4.9.9v3.9c0,.5-.4.9-.9.9h-5.8c-.5,0-.9-.4-.9-.9v-3.9c0-.5.4-.9.9-.9Z"/>
  <path class="cls-2" d="M6,24.7c0-5.9,4.8-10.8,10.8-10.8s10.8,4.8,10.8,10.8-4.8,10.8-10.8,10.8-10.8-4.8-10.8-10.8Z"/>
  <path class="cls-1" d="M16.4,18.1c.5,0,.9.4.9.9v5.9l3.5,2c.4.3.6.8.3,1.3-.3.4-.8.6-1.3.3l-4-2.3c-.3-.2-.5-.5-.5-.8v-6.5c0-.5.4-.9.9-.9h0Z"/>
</svg>